<svg width="20" height="17" viewBox="0 0 20 17" fill="none" xmlns="http://www.w3.org/2000/svg">
<path d="M16.087 0.869568C13.9291 0.869568 12.1739 2.62522 12.1739 4.78261C12.1739 5.02261 12.3683 5.21739 12.6087 5.21739C12.8491 5.21739 13.0435 5.02261 13.0435 4.78261C13.0435 3.10435 14.4091 1.73913 16.087 1.73913C17.7648 1.73913 19.1304 3.10435 19.1304 4.78261C19.1304 6.46087 17.7648 7.82609 16.087 7.82609H0.434783C0.194783 7.82609 0 8.02087 0 8.26087C0 8.50087 0.194783 8.69565 0.434783 8.69565H16.087C18.2448 8.69565 20 6.94 20 4.78261C20 2.62522 18.2448 0.869568 16.087 0.869568Z" fill="#007AFF"/>
<path d="M0.434783 6.08696H7.82609C9.50435 6.08696 10.8696 4.72174 10.8696 3.04348C10.8696 1.36522 9.50435 0 7.82609 0C6.14783 0 4.78261 1.36522 4.78261 3.04348C4.78261 3.28348 4.97739 3.47826 5.21739 3.47826C5.45739 3.47826 5.65217 3.28348 5.65217 3.04348C5.65217 1.84478 6.62739 0.869565 7.82609 0.869565C9.02478 0.869565 10 1.84478 10 3.04348C10 4.24217 9.02478 5.21739 7.82609 5.21739H0.434783C0.194783 5.21739 0 5.41217 0 5.65217C0 5.89217 0.194783 6.08696 0.434783 6.08696Z" fill="#007AFF"/>
<path d="M15.2174 15.6522C14.0187 15.6522 13.0435 14.677 13.0435 13.4783C13.0435 13.2383 12.8491 13.0435 12.6087 13.0435C12.3683 13.0435 12.1739 13.2383 12.1739 13.4783C12.1739 15.1565 13.5396 16.5217 15.2174 16.5217C16.8952 16.5217 18.2609 15.1565 18.2609 13.4783C18.2609 11.8 16.8952 10.4348 15.2174 10.4348H0.434783C0.194783 10.4348 0 10.6296 0 10.8696C0 11.1096 0.194783 11.3043 0.434783 11.3043H15.2174C16.4161 11.3043 17.3913 12.2796 17.3913 13.4783C17.3913 14.677 16.4161 15.6522 15.2174 15.6522Z" fill="#007AFF"/>
</svg>
